<?xml version="1.0" encoding="UTF-8" standalone="no"?>
<!-- Created with Inkscape (http://www.inkscape.org/) -->

<svg
   version="1.1"
   id="svg1"
   width="24"
   height="24"
   viewBox="0 0 24.000001 24.000001"
   sodipodi:docname="icon.svg"
   inkscape:version="1.4.3 (0d15f75042, 2025-12-25)"
   xmlns:inkscape="http://www.inkscape.org/namespaces/inkscape"
   xmlns:sodipodi="http://sodipodi.sourceforge.net/DTD/sodipodi-0.dtd"
   xmlns="http://www.w3.org/2000/svg"
   xmlns:svg="http://www.w3.org/2000/svg">
  <defs
     id="defs1" />
  <sodipodi:namedview
     id="namedview1"
     pagecolor="#ffffff"
     bordercolor="#000000"
     borderopacity="0.25"
     inkscape:showpageshadow="2"
     inkscape:pageopacity="0.0"
     inkscape:pagecheckerboard="0"
     inkscape:deskcolor="#d1d1d1"
     inkscape:zoom="13.788583"
     inkscape:cx="6.3458297"
     inkscape:cy="19.944036"
     inkscape:window-width="1920"
     inkscape:window-height="1011"
     inkscape:window-x="0"
     inkscape:window-y="0"
     inkscape:window-maximized="1"
     inkscape:current-layer="g1"
     showguides="true">
    <sodipodi:guide
       position="11.846021,16.270553"
       orientation="1,0"
       id="guide1"
       inkscape:locked="false" />
  </sodipodi:namedview>
  <g
     inkscape:groupmode="layer"
     inkscape:label="Image"
     id="g1"
     transform="translate(-459.99307,-154.00973)">
    <path
       style="fill:#000000;stroke-width:0.0227729"
       d="m 459.99363,167.28471 c 0,-10.59097 -0.0116,-9.87133 0.16511,-10.22011 0.1022,-0.20172 0.34566,-0.46042 0.52523,-0.55815 0.31456,-0.17121 0.35419,-0.17431 2.22885,-0.17431 h 1.72225 l -0.029,0.0987 c -0.016,0.0543 -0.0271,0.23532 -0.0246,0.40232 0.007,0.44462 0.007,0.4436 -0.0334,0.5921 -0.0501,0.18588 -0.003,0.35136 0.14189,0.49594 0.2097,0.20971 0.50044,0.21967 0.71665,0.0246 0.23406,-0.21121 0.25783,-0.39266 0.0946,-0.72281 l -0.10964,-0.222 0.0337,-0.28636 c 0.0186,-0.15749 0.0421,-0.30797 0.0522,-0.3344 0.0166,-0.0431 0.19935,-0.048 1.75842,-0.048 1.62241,0 1.75246,0.003 1.9248,0.0575 0.3464,0.10784 0.65015,0.36196 0.81094,0.67852 0.17438,0.34329 0.16424,-0.32166 0.15592,10.22799 l -0.008,9.69408 -0.21255,-0.007 c -0.71742,-0.023 -1.63494,-0.2842 -2.32219,-0.66102 -1.11796,-0.61301 -2.0793,-1.71903 -2.42263,-2.78723 -0.0457,-0.14209 -0.0899,-0.2587 -0.0983,-0.25914 -0.008,-4.3e-4 -0.0402,0.0846 -0.0706,0.18896 -0.0809,0.27693 -0.26142,0.67 -0.44027,0.95833 -0.8878,1.43128 -2.43943,2.39145 -4.13048,2.55602 -0.17295,0.0168 -0.34033,0.0306 -0.37196,0.0306 -0.0563,0 -0.0575,-0.20159 -0.0575,-9.72525 z m 7.71243,1.93135 c 0.30404,-0.14826 0.55922,-0.40326 0.7085,-0.70799 0.14042,-0.28664 0.17802,-0.47453 0.12173,-0.60838 l -0.0413,-0.0984 -0.0856,0.11803 c -0.39986,0.55136 -1.11849,0.67939 -2.17595,0.38769 -0.27161,-0.0749 -1.84286,-0.56067 -1.86244,-0.57578 -0.006,-0.005 0.0371,-0.12853 0.095,-0.27598 0.17286,-0.44043 0.27025,-0.93707 0.30857,-1.57374 0.0373,-0.61916 0.038,-0.62188 0.16336,-0.67332 0.70457,-0.28897 1.42776,-0.84208 1.87593,-1.4347 0.24289,-0.3212 0.50894,-0.84893 0.58911,-1.16854 0.0831,-0.33124 0.0825,-0.77617 -10e-4,-1.00041 -0.0981,-0.26238 -0.21319,-0.3963 -0.43355,-0.50478 -0.80648,-0.39703 -1.91989,0.0598 -2.48506,1.01957 -0.34011,0.57756 -0.50094,1.20382 -0.57241,2.2288 -0.0181,0.25886 -0.0402,0.53016 -0.0491,0.6029 l -0.0162,0.13225 -0.17213,-0.0215 c -0.29747,-0.0371 -0.54501,-0.15653 -0.75194,-0.36259 -0.25051,-0.24945 -0.32642,-0.44254 -0.32897,-0.83688 -10e-4,-0.26422 0.007,-0.30607 0.0968,-0.4982 0.0543,-0.11537 0.0923,-0.21618 0.0844,-0.22404 -0.0264,-0.0264 -0.3143,0.17764 -0.43253,0.30641 -0.25394,0.27656 -0.35956,0.56393 -0.3361,0.91443 0.0371,0.55372 0.46167,0.9481 1.14927,1.0675 0.16804,0.0292 0.37046,0.0437 0.49091,0.0353 l 0.20495,-0.0143 -2.9e-4,0.21607 c -7.2e-4,0.53779 -0.0772,1.27814 -0.18254,1.76971 l -0.0336,0.15687 -0.36998,1.5e-4 c -0.77739,3.5e-4 -1.35801,0.28361 -1.60348,0.78225 -0.0839,0.17037 -0.0931,0.21485 -0.0825,0.40127 0.0102,0.17338 0.027,0.2294 0.0989,0.32377 0.13692,0.17953 0.31144,0.2439 0.65536,0.24174 0.49816,-0.003 0.8886,-0.17919 1.30585,-0.58886 0.14538,-0.14273 0.29179,-0.2995 0.32536,-0.34836 l 0.061,-0.0889 0.26975,0.11551 c 0.14836,0.0635 0.46788,0.20755 0.71003,0.32004 1.37939,0.64082 2.09117,0.76338 2.70239,0.46533 z m -5.49539,-0.19165 c -0.11468,-0.028 -0.23248,-0.14344 -0.26062,-0.25561 -0.0308,-0.12288 0.0457,-0.32774 0.16437,-0.43961 0.16476,-0.15538 0.34618,-0.2245 0.62992,-0.23995 0.26003,-0.0142 0.68041,0.0405 0.68041,0.0884 0,0.0847 -0.19693,0.39694 -0.33832,0.53646 -0.26267,0.25919 -0.59783,0.37793 -0.87576,0.31027 z m 2.61095,-4.28906 c 5.8e-4,-0.6483 0.12068,-1.83602 0.22871,-2.26193 0.14775,-0.58239 0.43412,-1.00101 0.76099,-1.11238 0.62806,-0.214 1.01532,0.35238 0.84868,1.24125 -0.18532,0.98858 -0.73845,1.76238 -1.55119,2.17005 -0.13422,0.0674 -0.25379,0.12242 -0.26568,0.12242 -0.0118,0 -0.0216,-0.0717 -0.0215,-0.15941 z m 6.62645,-2.80579 c -0.0377,-0.008 -0.087,-0.0513 -0.10954,-0.0961 -0.06,-0.11946 -0.1625,-0.52622 -0.2148,-0.85232 -0.0252,-0.15682 -0.0523,-0.29166 -0.0602,-0.29965 -0.023,-0.023 0.0147,0.39875 0.072,0.8054 l 0.0525,0.37241 -0.0633,-0.0195 c -0.20451,-0.063 -0.22155,-0.0865 -0.265,-0.36766 -0.0255,-0.16485 -0.0406,-0.50996 -0.0396,-0.90423 10e-4,-0.57586 0.0102,-0.67589 0.0852,-1.03238 0.0459,-0.21709 0.12376,-0.51515 0.17301,-0.66232 l 0.0896,-0.2676 -0.0923,-0.0776 c -0.12644,-0.10637 -0.18116,-0.22396 -0.18116,-0.38921 0,-0.15204 0.0491,-0.2714 0.14871,-0.36155 0.082,-0.0742 0.0803,-0.14096 -0.0102,-0.4059 -0.29284,-0.86098 -0.93269,-1.56819 -1.79379,-1.98261 -0.6505,-0.31307 -1.3578,-0.42268 -2.05211,-0.31801 -0.58773,0.0885 -1.08023,0.30148 -1.38576,0.59901 -0.19591,0.19077 -0.20642,0.22011 -0.12047,0.33637 0.12701,0.17178 0.12632,0.20458 -0.005,0.20458 -0.063,0 -0.13175,-0.017 -0.15291,-0.0379 -0.0308,-0.0303 -0.0472,-0.0262 -0.0822,0.0214 -0.11897,0.16121 -0.17578,0.7618 -0.0946,1.00008 0.0423,0.12432 0.0425,0.14446 10e-4,0.18528 -0.0252,0.0251 -0.0786,0.0458 -0.11874,0.0458 -0.21792,0 -0.25823,-0.6958 -0.0717,-1.23786 0.0608,-0.17667 0.0585,-0.20763 -0.013,-0.18017 -0.0598,0.0229 -0.13438,0.2566 -0.17775,0.55666 -0.0289,0.19962 -0.0284,0.30912 0.002,0.52546 0.0212,0.15031 0.03,0.28739 0.0193,0.3046 -0.0351,0.0567 -0.16456,0.0338 -0.20965,-0.037 -0.11996,-0.18857 -0.13514,-0.73493 -0.0302,-1.08826 0.0506,-0.17072 0.0306,-0.23275 -0.0411,-0.1263 -0.0359,0.0535 -0.0749,0.0684 -0.17886,0.0684 -0.0731,0 -0.13286,-0.0101 -0.13277,-0.0228 3.4e-4,-0.051 0.14213,-0.25032 0.22308,-0.31357 0.0476,-0.0372 0.13626,-0.0847 0.19696,-0.10558 0.0934,-0.0322 0.13616,-0.0816 0.27777,-0.3207 0.19057,-0.32187 0.53741,-0.70526 0.79879,-0.88294 0.60766,-0.41307 1.42009,-0.61235 2.20763,-0.54149 0.59777,0.0538 1.09462,0.22436 1.58014,0.54251 0.88771,0.58172 1.41475,1.4566 1.69404,2.81212 0.052,0.25244 0.062,0.27341 0.14081,0.29449 0.29417,0.0786 0.41854,0.50359 0.22258,0.76051 l -0.0774,0.10141 0.12042,0.16643 c 0.17436,0.24098 0.24879,0.40023 0.4151,0.88813 0.27294,0.80075 0.57331,1.38234 0.84844,1.64278 l 0.0922,0.0872 -0.0907,0.0763 -0.0907,0.0762 -0.0926,-0.0876 c -0.14374,-0.13596 -0.34353,-0.40556 -0.46698,-0.63015 -0.0618,-0.11235 -0.1183,-0.1983 -0.12563,-0.19096 -0.016,0.016 0.18569,0.56303 0.2706,0.73352 0.0333,0.0668 0.0931,0.16496 0.13293,0.21811 0.0398,0.0531 0.0724,0.10457 0.0724,0.1143 0,0.0204 -0.18657,0.13794 -0.21921,0.13812 -0.0299,1.6e-4 -0.2254,-0.30635 -0.34859,-0.54645 -0.0962,-0.18757 -0.10028,-0.19134 -0.081,-0.0759 0.0113,0.0668 0.0636,0.25592 0.11667,0.42027 l 0.0963,0.29882 -0.0782,0.0325 c -0.0818,0.034 -0.66569,0.0587 -0.7845,0.0332 z m -0.72439,-5.76833 c -0.19958,-0.47765 -0.67822,-1.03857 -1.15891,-1.35814 -0.99887,-0.66404 -2.41984,-0.70106 -3.40411,-0.0887 -0.2871,0.17864 -0.63129,0.52279 -0.79,0.78994 -0.14078,0.23697 -0.14247,0.24281 -0.074,0.25624 0.0301,0.006 0.12988,-0.0735 0.2505,-0.19955 0.23323,-0.24364 0.46367,-0.40205 0.77065,-0.52975 1.07439,-0.44696 2.38288,-0.32021 3.4454,0.33373 0.18854,0.11603 0.36835,0.26777 0.62921,0.53093 0.20086,0.20266 0.36792,0.37004 0.37125,0.37196 0.003,0.002 -0.0147,-0.0461 -0.0399,-0.10671 z"
       id="path10" />
  </g>
</svg>
